<?xml version="1.0" encoding="UTF-8"?>
<!DOCTYPE svg PUBLIC "-//W3C//DTD SVG 1.1//EN" "http://www.w3.org/Graphics/SVG/1.1/DTD/svg11.dtd">
<svg xmlns="http://www.w3.org/2000/svg" version="1.1" width="199px" height="53px" style="shape-rendering:geometricPrecision; text-rendering:geometricPrecision; image-rendering:optimizeQuality; fill-rule:evenodd; clip-rule:evenodd" xmlns:xlink="http://www.w3.org/1999/xlink">
<g><path style="opacity:1" fill="#fbfaf8" d="M -0.5,-0.5 C 65.8333,-0.5 132.167,-0.5 198.5,-0.5C 198.5,17.1667 198.5,34.8333 198.5,52.5C 132.167,52.5 65.8333,52.5 -0.5,52.5C -0.5,34.8333 -0.5,17.1667 -0.5,-0.5 Z"/></g>
<g><path style="opacity:1" fill="#0d080c" d="M 44.5,39.5 C 44.1667,37.5 43.8333,35.5 43.5,33.5C 46.4824,33.0371 49.4824,32.7038 52.5,32.5C 52.2447,36.4925 53.9114,39.3258 57.5,41C 62.7566,42.4261 67.2566,41.2594 71,37.5C 71.7429,35.5594 71.5762,33.7261 70.5,32C 65.2716,30.0257 59.9382,28.3591 54.5,27C 42.8793,21.0139 41.546,13.3473 50.5,4C 57.8062,0.722561 65.1396,0.722561 72.5,4C 76.6,7.23706 78.6,11.4037 78.5,16.5C 75.5,16.5 72.5,16.5 69.5,16.5C 69.2474,11.2659 66.414,8.93259 61,9.5C 55.8197,9.22109 53.4863,11.5544 54,16.5C 60.0047,18.9112 66.1714,21.0779 72.5,23C 81.4393,28.899 82.7726,36.2323 76.5,45C 68.2033,50.0801 59.5366,50.7468 50.5,47C 47.9061,44.9135 45.9061,42.4135 44.5,39.5 Z"/></g>
<g><path style="opacity:1" fill="#030007" d="M 2.5,2.5 C 13.8333,2.5 25.1667,2.5 36.5,2.5C 36.5,5.16667 36.5,7.83333 36.5,10.5C 28.1667,10.5 19.8333,10.5 11.5,10.5C 11.5,13.8333 11.5,17.1667 11.5,20.5C 19.1667,20.5 26.8333,20.5 34.5,20.5C 34.5,23.1667 34.5,25.8333 34.5,28.5C 26.8333,28.5 19.1667,28.5 11.5,28.5C 11.5,32.5 11.5,36.5 11.5,40.5C 20.1667,40.5 28.8333,40.5 37.5,40.5C 37.5,43.1667 37.5,45.8333 37.5,48.5C 25.8333,48.5 14.1667,48.5 2.5,48.5C 2.5,33.1667 2.5,17.8333 2.5,2.5 Z"/></g>
<g><path style="opacity:1" fill="#06030b" d="M 88.5,2.5 C 97.9005,2.11367 107.234,2.61367 116.5,4C 122.976,8.08168 125.143,13.915 123,21.5C 121.098,26.4005 117.598,29.5671 112.5,31C 107.511,31.4993 102.511,31.6659 97.5,31.5C 97.5,37.1667 97.5,42.8333 97.5,48.5C 94.5,48.5 91.5,48.5 88.5,48.5C 88.5,33.1667 88.5,17.8333 88.5,2.5 Z"/></g>
<g><path style="opacity:1" fill="#0e080d" d="M 147.5,18.5 C 150.167,16.1667 150.167,13.8333 147.5,11.5C 141.974,9.00001 138.974,10.6667 138.5,16.5C 135.833,16.1667 133.167,15.8333 130.5,15.5C 130.538,9.28286 133.538,5.11619 139.5,3C 151.748,1.25764 157.581,6.4243 157,18.5C 155.167,20.3333 153.333,22.1667 151.5,24C 157.137,25.7984 159.803,29.6318 159.5,35.5C 157.206,46.165 150.54,50.665 139.5,49C 133.754,46.7547 130.42,42.5881 129.5,36.5C 132.012,35.2054 134.679,34.5387 137.5,34.5C 139.705,42.0055 143.871,43.3388 150,38.5C 152.156,30.8325 149.322,27.1659 141.5,27.5C 141.5,25.1667 141.5,22.8333 141.5,20.5C 143.786,20.405 145.786,19.7384 147.5,18.5 Z"/></g>
<g><path style="opacity:1" fill="#0c070b" d="M 175.5,2.5 C 191.816,0.972565 197.649,7.97256 193,23.5C 187.959,28.7093 182.792,33.7093 177.5,38.5C 183.463,39.4959 189.463,39.8293 195.5,39.5C 195.5,42.5 195.5,45.5 195.5,48.5C 185.167,48.5 174.833,48.5 164.5,48.5C 164.298,46.0108 164.798,43.6775 166,41.5C 172.667,34.1667 179.333,26.8333 186,19.5C 186.742,11.2521 183.242,8.75206 175.5,12C 174.594,13.6995 174.261,15.5328 174.5,17.5C 171.455,17.4921 168.455,17.1587 165.5,16.5C 166.113,9.8873 169.447,5.22063 175.5,2.5 Z"/></g>
<g><path style="opacity:1" fill="#f9f8f3" d="M 97.5,10.5 C 101.846,10.3343 106.179,10.501 110.5,11C 116.073,15.4719 115.74,19.4719 109.5,23C 105.514,23.4988 101.514,23.6655 97.5,23.5C 97.5,19.1667 97.5,14.8333 97.5,10.5 Z"/></g>
<g><path style="opacity:1" fill="#ddad75" d="M 147.5,11.5 C 150.167,13.8333 150.167,16.1667 147.5,18.5C 147.5,16.1667 147.5,13.8333 147.5,11.5 Z"/></g>
<g><path style="opacity:1" fill="#deab6f" d="M 43.5,33.5 C 43.8333,35.5 44.1667,37.5 44.5,39.5C 43.0532,38.8658 42.3866,37.6991 42.5,36C 42.528,34.9302 42.8614,34.0968 43.5,33.5 Z"/></g>
</svg>
