<?xml version="1.0" encoding="UTF-8"?>
<!DOCTYPE svg PUBLIC "-//W3C//DTD SVG 1.1//EN" "http://www.w3.org/Graphics/SVG/1.1/DTD/svg11.dtd">
<svg xmlns="http://www.w3.org/2000/svg" version="1.1" width="178px" height="52px" style="shape-rendering:geometricPrecision; text-rendering:geometricPrecision; image-rendering:optimizeQuality; fill-rule:evenodd; clip-rule:evenodd" xmlns:xlink="http://www.w3.org/1999/xlink">
<g><path style="opacity:1" fill="#fcfbf9" d="M -0.5,-0.5 C 58.8333,-0.5 118.167,-0.5 177.5,-0.5C 177.5,16.8333 177.5,34.1667 177.5,51.5C 118.167,51.5 58.8333,51.5 -0.5,51.5C -0.5,34.1667 -0.5,16.8333 -0.5,-0.5 Z"/></g>
<g><path style="opacity:1" fill="#0e0708" d="M 93.5,16.5 C 92.027,19.0169 91.3603,21.8502 91.5,25C 91.5056,27.0326 91.8389,28.866 92.5,30.5C 96.2656,41.7603 103.599,44.5936 114.5,39C 116.278,36.8646 116.945,34.3646 116.5,31.5C 112.833,31.5 109.167,31.5 105.5,31.5C 105.5,28.8333 105.5,26.1667 105.5,23.5C 112.167,23.5 118.833,23.5 125.5,23.5C 125.666,29.8421 125.5,36.1754 125,42.5C 114.865,50.2697 104.032,51.4363 92.5,46C 81.8408,36.1321 79.6741,24.6321 86,11.5C 95.0756,0.821987 105.909,-1.34468 118.5,5C 126.221,11.7104 125.554,15.8771 116.5,17.5C 112.541,9.9011 106.541,7.73443 98.5,11C 96.5981,12.7297 94.9314,14.563 93.5,16.5 Z"/></g>
<g><path style="opacity:1" fill="#04000a" d="M 2.5,2.5 C 12.8333,2.5 23.1667,2.5 33.5,2.5C 33.5,5.16667 33.5,7.83333 33.5,10.5C 26.1667,10.5 18.8333,10.5 11.5,10.5C 11.5,13.8333 11.5,17.1667 11.5,20.5C 17.8333,20.5 24.1667,20.5 30.5,20.5C 30.5,23.1667 30.5,25.8333 30.5,28.5C 24.1667,28.5 17.8333,28.5 11.5,28.5C 11.5,35.1667 11.5,41.8333 11.5,48.5C 8.5,48.5 5.5,48.5 2.5,48.5C 2.5,33.1667 2.5,17.8333 2.5,2.5 Z"/></g>
<g><path style="opacity:1" fill="#06030b" d="M 41.5,2.5 C 50.9005,2.11367 60.2338,2.61367 69.5,4C 75.976,8.08168 78.1427,13.915 76,21.5C 74.0982,26.4005 70.5982,29.5671 65.5,31C 60.5111,31.4993 55.5111,31.6659 50.5,31.5C 50.5,37.1667 50.5,42.8333 50.5,48.5C 47.5,48.5 44.5,48.5 41.5,48.5C 41.5,33.1667 41.5,17.8333 41.5,2.5 Z"/></g>
<g><path style="opacity:1" fill="#0f090e" d="M 146.5,2.5 C 150.106,2.21083 153.606,2.54416 157,3.5C 162.54,18.3718 168.373,33.0384 174.5,47.5C 171.167,48.8333 167.833,48.8333 164.5,47.5C 163.805,44.7198 162.805,42.0531 161.5,39.5C 155.167,38.1667 148.833,38.1667 142.5,39.5C 141.42,42.3318 140.42,45.1651 139.5,48C 136.118,48.8236 132.784,48.657 129.5,47.5C 136.161,32.847 141.828,17.847 146.5,2.5 Z"/></g>
<g><path style="opacity:1" fill="#f9f8f3" d="M 50.5,10.5 C 54.8461,10.3343 59.1794,10.501 63.5,11C 69.0734,15.4719 68.7401,19.4719 62.5,23C 58.5138,23.4988 54.5138,23.6655 50.5,23.5C 50.5,19.1667 50.5,14.8333 50.5,10.5 Z"/></g>
<g><path style="opacity:1" fill="#f6f0e5" d="M 151.5,13.5 C 154.306,18.7994 156.306,24.466 157.5,30.5C 153.833,30.5 150.167,30.5 146.5,30.5C 147.567,24.6338 149.234,18.9672 151.5,13.5 Z"/></g>
<g><path style="opacity:1" fill="#2657a6" d="M 93.5,16.5 C 92.7705,21.1304 92.4372,25.7971 92.5,30.5C 91.8389,28.866 91.5056,27.0326 91.5,25C 91.3603,21.8502 92.027,19.0169 93.5,16.5 Z"/></g>
</svg>
