<?xml version="1.0" encoding="UTF-8"?>
<!DOCTYPE svg PUBLIC "-//W3C//DTD SVG 1.1//EN" "http://www.w3.org/Graphics/SVG/1.1/DTD/svg11.dtd">
<svg xmlns="http://www.w3.org/2000/svg" version="1.1" width="110px" height="53px" style="shape-rendering:geometricPrecision; text-rendering:geometricPrecision; image-rendering:optimizeQuality; fill-rule:evenodd; clip-rule:evenodd" xmlns:xlink="http://www.w3.org/1999/xlink">
<g><path style="opacity:1" fill="#fcf9f6" d="M -0.5,-0.5 C 36.1667,-0.5 72.8333,-0.5 109.5,-0.5C 109.5,17.1667 109.5,34.8333 109.5,52.5C 72.8333,52.5 36.1667,52.5 -0.5,52.5C -0.5,34.8333 -0.5,17.1667 -0.5,-0.5 Z"/></g>
<g><path style="opacity:1" fill="#0d070a" d="M 35.5,2.5 C 57.3252,2.16432 66.4919,12.831 63,34.5C 56.7009,49.4971 45.8675,53.9971 30.5,48C 23.0042,42.8426 19.3375,35.6759 19.5,26.5C 19.3722,14.7316 24.7055,6.7316 35.5,2.5 Z"/></g>
<g><path style="opacity:1" fill="#0b0e16" d="M 3.5,3.5 C 6.5,3.5 9.5,3.5 12.5,3.5C 12.5,18.8333 12.5,34.1667 12.5,49.5C 9.5,49.5 6.5,49.5 3.5,49.5C 3.5,34.1667 3.5,18.8333 3.5,3.5 Z"/></g>
<g><path style="opacity:1" fill="#06080f" d="M 69.5,3.5 C 81.5,3.5 93.5,3.5 105.5,3.5C 105.5,6.16667 105.5,8.83333 105.5,11.5C 101.167,11.5 96.8333,11.5 92.5,11.5C 92.5,24.1667 92.5,36.8333 92.5,49.5C 89.5,49.5 86.5,49.5 83.5,49.5C 83.5,36.8333 83.5,24.1667 83.5,11.5C 78.8333,11.5 74.1667,11.5 69.5,11.5C 69.5,8.83333 69.5,6.16667 69.5,3.5 Z"/></g>
<g><path style="opacity:1" fill="#f8f9fa" d="M 52.5,16.5 C 53.2919,22.1302 53.6252,27.7969 53.5,33.5C 50.6529,40.7596 45.3195,43.593 37.5,42C 31.124,38.2602 28.124,32.5935 28.5,25C 29.2009,13.6402 35.2009,8.97355 46.5,11C 48.9962,12.331 50.9962,14.1644 52.5,16.5 Z"/></g>
<g><path style="opacity:1" fill="#e9b066" d="M 52.5,16.5 C 54.0186,19.5256 54.6852,22.8589 54.5,26.5C 54.4966,29.0254 54.1633,31.3587 53.5,33.5C 53.6252,27.7969 53.2919,22.1302 52.5,16.5 Z"/></g>
</svg>
