<?xml version="1.0" encoding="UTF-8"?>
<!DOCTYPE svg PUBLIC "-//W3C//DTD SVG 1.1//EN" "http://www.w3.org/Graphics/SVG/1.1/DTD/svg11.dtd">
<svg xmlns="http://www.w3.org/2000/svg" version="1.1" width="132px" height="51px" style="shape-rendering:geometricPrecision; text-rendering:geometricPrecision; image-rendering:optimizeQuality; fill-rule:evenodd; clip-rule:evenodd" xmlns:xlink="http://www.w3.org/1999/xlink">
<g><path style="opacity:1" fill="#fcfaf7" d="M -0.5,-0.5 C 43.5,-0.5 87.5,-0.5 131.5,-0.5C 131.5,16.5 131.5,33.5 131.5,50.5C 87.5,50.5 43.5,50.5 -0.5,50.5C -0.5,33.5 -0.5,16.5 -0.5,-0.5 Z"/></g>
<g><path style="opacity:1" fill="#0b0609" d="M 53.5,14.5 C 51.9942,17.356 51.3275,20.5226 51.5,24C 51.5039,26.3608 51.8373,28.5274 52.5,30.5C 55.4228,39.1213 61.0894,41.4546 69.5,37.5C 71.7739,35.2873 73.2739,32.6207 74,29.5C 76.0715,30.5248 78.2381,31.3581 80.5,32C 80.6762,40.5145 76.3429,45.5145 67.5,47C 57.0885,48.461 49.4218,44.6277 44.5,35.5C 43.6365,29.5451 43.3032,23.5451 43.5,17.5C 46.7358,4.535 55.0692,-0.965001 68.5,1C 75.9354,2.7584 80.102,7.2584 81,14.5C 78.6667,15.1667 76.3333,15.8333 74,16.5C 70.6429,9.04542 65.1429,6.87876 57.5,10C 55.9297,11.3968 54.5964,12.8968 53.5,14.5 Z"/></g>
<g><path style="opacity:1" fill="#06030b" d="M 1.5,1.5 C 10.9005,1.11367 20.2338,1.61367 29.5,3C 35.976,7.08168 38.1427,12.915 36,20.5C 34.0982,25.4005 30.5982,28.5671 25.5,30C 20.5111,30.4993 15.5111,30.6659 10.5,30.5C 10.5,36.1667 10.5,41.8333 10.5,47.5C 7.5,47.5 4.5,47.5 1.5,47.5C 1.5,32.1667 1.5,16.8333 1.5,1.5 Z"/></g>
<g><path style="opacity:1" fill="#07060c" d="M 90.5,1.5 C 99.1731,1.33358 107.84,1.50025 116.5,2C 125.219,4.4983 128.052,9.9983 125,18.5C 123.442,20.3589 121.609,21.8589 119.5,23C 125.48,24.4459 128.48,28.2792 128.5,34.5C 127.972,39.855 125.306,43.6883 120.5,46C 110.58,47.4234 100.58,47.9234 90.5,47.5C 90.5,32.1667 90.5,16.8333 90.5,1.5 Z"/></g>
<g><path style="opacity:1" fill="#f9f8f3" d="M 10.5,9.5 C 14.8461,9.33432 19.1794,9.50098 23.5,10C 29.0734,14.4719 28.7401,18.4719 22.5,22C 18.5138,22.4988 14.5138,22.6655 10.5,22.5C 10.5,18.1667 10.5,13.8333 10.5,9.5 Z"/></g>
<g><path style="opacity:1" fill="#fcfbf7" d="M 99.5,9.5 C 105.262,9.14931 110.928,9.64931 116.5,11C 118.354,14.7258 117.354,17.3924 113.5,19C 108.845,19.4992 104.179,19.6658 99.5,19.5C 99.5,16.1667 99.5,12.8333 99.5,9.5 Z"/></g>
<g><path style="opacity:1" fill="#2254a1" d="M 53.5,14.5 C 52.7255,19.7968 52.3921,25.1301 52.5,30.5C 51.8373,28.5274 51.5039,26.3608 51.5,24C 51.3275,20.5226 51.9942,17.356 53.5,14.5 Z"/></g>
<g><path style="opacity:1" fill="#fbfaf7" d="M 99.5,27.5 C 104.844,27.334 110.177,27.5006 115.5,28C 118.265,30.5525 119.098,33.7192 118,37.5C 117.25,38.1258 116.416,38.6258 115.5,39C 110.177,39.4994 104.844,39.666 99.5,39.5C 99.5,35.5 99.5,31.5 99.5,27.5 Z"/></g>
<g><path style="opacity:1" fill="#c5844c" d="M 43.5,17.5 C 43.3032,23.5451 43.6365,29.5451 44.5,35.5C 43.7784,35.0825 43.2784,34.4158 43,33.5C 42.1826,27.9836 42.3493,22.6503 43.5,17.5 Z"/></g>
</svg>
