<?xml version="1.0" encoding="UTF-8"?>
<!DOCTYPE svg PUBLIC "-//W3C//DTD SVG 1.1//EN" "http://www.w3.org/Graphics/SVG/1.1/DTD/svg11.dtd">
<svg xmlns="http://www.w3.org/2000/svg" version="1.1" width="179px" height="57px" style="shape-rendering:geometricPrecision; text-rendering:geometricPrecision; image-rendering:optimizeQuality; fill-rule:evenodd; clip-rule:evenodd" xmlns:xlink="http://www.w3.org/1999/xlink">
<g><path style="opacity:1" fill="#fcfbf9" d="M -0.5,-0.5 C 59.1667,-0.5 118.833,-0.5 178.5,-0.5C 178.5,18.5 178.5,37.5 178.5,56.5C 118.833,56.5 59.1667,56.5 -0.5,56.5C -0.5,37.5 -0.5,18.5 -0.5,-0.5 Z"/></g>
<g><path style="opacity:1" fill="#0c0a12" d="M 16.5,44.5 C 16.5905,41.8478 15.9238,39.5145 14.5,37.5C 12.2263,29.6783 9.55966,22.0116 6.5,14.5C 5.87096,11.6027 4.87096,8.936 3.5,6.5C 4.51448,5.23532 6.01448,4.56865 8,4.5C 10.5864,4.50181 12.5864,5.50181 14,7.5C 17.2072,17.6224 20.7072,27.6224 24.5,37.5C 28.7681,26.6957 32.4348,15.6957 35.5,4.5C 38.5,4.5 41.5,4.5 44.5,4.5C 39.9714,19.5964 34.9714,34.5964 29.5,49.5C 25.8927,50.4892 22.226,50.8226 18.5,50.5C 18.7406,48.1016 18.0739,46.1016 16.5,44.5 Z"/></g>
<g><path style="opacity:1" fill="#0b030f" d="M 50.5,4.5 C 53.5,4.5 56.5,4.5 59.5,4.5C 59.5,10.5 59.5,16.5 59.5,22.5C 65.5,22.5 71.5,22.5 77.5,22.5C 77.5,16.5 77.5,10.5 77.5,4.5C 80.5,4.5 83.5,4.5 86.5,4.5C 86.5,19.8333 86.5,35.1667 86.5,50.5C 83.5,50.5 80.5,50.5 77.5,50.5C 77.5,43.8333 77.5,37.1667 77.5,30.5C 71.5,30.5 65.5,30.5 59.5,30.5C 59.5,37.1667 59.5,43.8333 59.5,50.5C 56.5,50.5 53.5,50.5 50.5,50.5C 50.5,35.1667 50.5,19.8333 50.5,4.5 Z"/></g>
<g><path style="opacity:1" fill="#0b070d" d="M 96.5,4.5 C 104.174,4.33365 111.841,4.50031 119.5,5C 130.219,8.6221 135.219,16.1221 134.5,27.5C 134.725,35.7924 131.725,42.6258 125.5,48C 123.5,48.6667 121.5,49.3333 119.5,50C 111.841,50.4997 104.174,50.6664 96.5,50.5C 96.5,35.1667 96.5,19.8333 96.5,4.5 Z"/></g>
<g><path style="opacity:1" fill="#0f0206" d="M 142.5,4.5 C 145.5,4.5 148.5,4.5 151.5,4.5C 151.5,17.1667 151.5,29.8333 151.5,42.5C 159.167,42.5 166.833,42.5 174.5,42.5C 174.5,45.1667 174.5,47.8333 174.5,50.5C 163.833,50.5 153.167,50.5 142.5,50.5C 142.5,35.1667 142.5,19.8333 142.5,4.5 Z"/></g>
<g><path style="opacity:1" fill="#d09550" d="M 3.5,6.5 C 4.87096,8.936 5.87096,11.6027 6.5,14.5C 4.3455,12.3826 3.3455,9.71597 3.5,6.5 Z"/></g>
<g><path style="opacity:1" fill="#fcfcfa" d="M 105.5,12.5 C 122.939,10.627 129.106,18.2937 124,35.5C 123.208,37.5873 122.041,39.4207 120.5,41C 115.599,42.3254 110.599,42.8254 105.5,42.5C 105.5,32.5 105.5,22.5 105.5,12.5 Z"/></g>
<g><path style="opacity:1" fill="#daa55e" d="M 14.5,37.5 C 15.9238,39.5145 16.5905,41.8478 16.5,44.5C 15.0762,42.4855 14.4095,40.1522 14.5,37.5 Z"/></g>
</svg>
